<svg width="24" height="24" viewBox="0 0 24 24" fill="none" xmlns="http://www.w3.org/2000/svg">
<path d="M8 3C6.67392 3 5.40215 3.52678 4.46447 4.46447C3.52678 5.40215 3 6.67392 3 8V16C3 17.3261 3.52678 18.5979 4.46447 19.5355C5.40215 20.4732 6.67392 21 8 21H16C17.3261 21 18.5979 20.4732 19.5355 19.5355C20.4732 18.5979 21 17.3261 21 16V8C21 6.67392 20.4732 5.40215 19.5355 4.46447C18.5979 3.52678 17.3261 3 16 3H8ZM18 5C18.55 5 19 5.45 19 6C19 6.55 18.55 7 18 7C17.45 7 17 6.55 17 6C17 5.45 17.45 5 18 5ZM12 7C13.3261 7 14.5979 7.52678 15.5355 8.46447C16.4732 9.40215 17 10.6739 17 12C17 13.3261 16.4732 14.5979 15.5355 15.5355C14.5979 16.4732 13.3261 17 12 17C10.6739 17 9.40215 16.4732 8.46447 15.5355C7.52678 14.5979 7 13.3261 7 12C7 10.6739 7.52678 9.40215 8.46447 8.46447C9.40215 7.52678 10.6739 7 12 7ZM12 9C11.6059 9.00013 11.2157 9.07788 10.8516 9.22882C10.4876 9.37976 10.1568 9.60092 9.87827 9.87968C9.59969 10.1584 9.37875 10.4893 9.22806 10.8535C9.07736 11.2176 8.99987 11.6079 9 12.002C9.00013 12.3961 9.07788 12.7863 9.22882 13.1504C9.37976 13.5144 9.60092 13.8452 9.87968 14.1237C10.1584 14.4023 10.4893 14.6233 10.8535 14.7739C11.2176 14.9246 11.6079 15.0021 12.002 15.002C12.7979 15.0017 13.5611 14.6853 14.1237 14.1223C14.6863 13.5593 15.0023 12.7959 15.002 12C15.0017 11.2041 14.6853 10.4409 14.1223 9.87827C13.5593 9.31566 12.7959 8.99973 12 9Z" fill="#F1F1F1"/>
</svg>
