<svg width="36" height="36" viewBox="0 0 36 36" fill="none" xmlns="http://www.w3.org/2000/svg">
<g id="Iconly/Curved/Profile">
<g id="Profile">
<path id="Stroke 1" fill-rule="evenodd" clip-rule="evenodd" d="M17.7668 32.4929C12.2291 32.4929 7.5 31.6311 7.5 28.18C7.5 24.7288 12.1991 21.5429 17.7668 21.5429C23.3045 21.5429 28.0336 24.6979 28.0336 28.1491C28.0336 31.5989 23.3345 32.4929 17.7668 32.4929Z" stroke="#EFEFEF" stroke-width="1.5" stroke-linecap="round" stroke-linejoin="round"/>
<path id="Stroke 3" fill-rule="evenodd" clip-rule="evenodd" d="M17.7559 16.7605C21.39 16.7605 24.3355 13.815 24.3355 10.1809C24.3355 6.54682 21.39 3.60001 17.7559 3.60001C14.1218 3.60001 11.175 6.54682 11.175 10.1809C11.1628 13.8027 14.0878 16.7482 17.7096 16.7605C17.7259 16.7605 17.7409 16.7605 17.7559 16.7605Z" stroke="#EFEFEF" stroke-width="1.5" stroke-linecap="round" stroke-linejoin="round"/>
</g>
</g>
</svg>
